<svg width="192" height="192" viewBox="0 0 192 192" fill="none" xmlns="http://www.w3.org/2000/svg">
<circle cx="96" cy="96" r="96" fill="#190F27"/>
<path d="M77.7403 90.376C77.7403 88.9253 77.5483 87.6667 77.1643 86.6L80.7483 86.152C81.6443 86.792 82.0923 87.9653 82.0923 89.672C82.0923 91.3787 82.0496 92.68 81.9643 93.576C81.6229 96.3493 80.3429 100.04 78.1243 104.648L72.3643 117H68.3323L64.8763 104.648C64.4496 103.197 64.3216 101.747 64.4923 100.296H64.1083C63.8949 101.32 63.4043 102.771 62.6363 104.648L57.5163 117H53.4843L47.5323 95.816C46.3376 91.464 45.3136 88.712 44.4603 87.56L44.0763 86.92L47.4043 86.28C48.0869 86.28 48.6203 86.5787 49.0043 87.176C49.4309 87.7733 49.9216 89.0107 50.4763 90.888L56.3003 111.432H56.6843C56.6416 111.219 56.6203 110.856 56.6203 110.344C56.6203 109.832 56.8763 109 57.3883 107.848L59.5643 102.792C61.3563 98.6107 62.2523 94.472 62.2523 90.376C62.2523 89.0533 62.0603 87.8587 61.6763 86.792L65.2603 86.344C66.1563 87.0693 66.6043 88.2853 66.6043 89.992C66.6043 91.656 66.5189 93.192 66.3483 94.6L71.1483 111.432H71.5323C71.4896 111.219 71.4683 110.856 71.4683 110.344C71.4683 109.832 71.7243 109 72.2363 107.848L74.4123 102.792C76.6309 97.6293 77.7403 93.4907 77.7403 90.376ZM96.2923 117.512C94.3296 117.512 92.9643 117.043 92.1963 116.104C91.4283 115.165 91.0443 113.629 91.0443 111.496V86.92H95.6523V108.872C95.6523 111.133 95.8229 112.605 96.1643 113.288C96.5056 113.928 97.4869 114.248 99.1083 114.248L99.2363 117.064C98.2549 117.363 97.2736 117.512 96.2923 117.512ZM90.5963 76.872C90.5963 74.8667 91.5776 73.864 93.5403 73.864C95.3323 73.864 96.2283 74.8453 96.2283 76.808C96.2283 78.728 95.2896 79.688 93.4123 79.688C91.5349 79.688 90.5963 78.7493 90.5963 76.872ZM107.791 117V70.088L112.143 69.32L112.207 86.92C112.207 89.1813 112.037 91.2933 111.695 93.256H112.079C112.805 91.08 114.042 89.352 115.791 88.072C117.541 86.792 119.589 86.152 121.935 86.152C124.282 86.152 126.202 86.792 127.695 88.072C129.231 89.352 129.999 91.1653 129.999 93.512C129.999 95.816 129.082 97.7573 127.247 99.336C125.413 100.872 123.13 101.939 120.399 102.536L124.111 109C125.263 110.963 126.309 112.349 127.247 113.16C128.186 113.928 129.295 114.312 130.575 114.312L130.703 117.192C130.447 117.405 129.807 117.512 128.783 117.512C126.735 117.512 125.093 117 123.855 115.976C122.618 114.909 121.423 113.267 120.271 111.048L115.279 101.512V100.36C117.967 100.36 120.293 99.7627 122.255 98.568C124.218 97.3733 125.199 95.6667 125.199 93.448C125.199 92.2533 124.794 91.336 123.983 90.696C123.215 90.056 122.213 89.736 120.975 89.736C118.97 89.736 117.263 90.4827 115.855 91.976C113.381 94.664 112.143 98.6107 112.143 103.816V117H107.791ZM144.105 117.512C142.142 117.512 140.777 117.043 140.009 116.104C139.241 115.165 138.857 113.629 138.857 111.496V86.92H143.465V108.872C143.465 111.133 143.635 112.605 143.977 113.288C144.318 113.928 145.299 114.248 146.921 114.248L147.049 117.064C146.067 117.363 145.086 117.512 144.105 117.512ZM138.409 76.872C138.409 74.8667 139.39 73.864 141.353 73.864C143.145 73.864 144.041 74.8453 144.041 76.808C144.041 78.728 143.102 79.688 141.225 79.688C139.347 79.688 138.409 78.7493 138.409 76.872Z" fill="white"/>
</svg>
